<svg width="1440" height="570" viewBox="0 0 1440 570" fill="none" xmlns="http://www.w3.org/2000/svg">
<g clip-path="url(#clip0_77_424)">
<rect width="1440" height="939.6" fill="url(#paint0_linear_77_424)"/>
<g filter="url(#filter0_f_77_424)" style="mix-blend-mode:plus-lighter">
<path d="M133.205 -118.859L372.239 -203.576L39.7966 39.6541L-358.262 234.816L-659.094 -343.41L-560.227 -447.362L-362.652 -383.751L-120.883 -165.653L133.205 -118.859Z" fill="white"/>
</g>
<g filter="url(#filter1_f_77_424)" style="mix-blend-mode:plus-lighter">
<path d="M122.648 -22.5521L361.681 -107.27L29.2392 135.961L-368.819 331.122L-669.651 -247.104L-570.785 -351.055L-373.209 -287.444L-131.44 -69.3461L122.648 -22.5521Z" fill="#7100CC"/>
</g>
<g filter="url(#filter2_f_77_424)" style="mix-blend-mode:plus-lighter">
<path d="M39.5387 72.697L278.572 -12.0205L-53.8702 231.21L-451.929 426.371L-752.76 -151.855L-653.894 -255.806L-456.319 -192.195L-214.549 25.9029L39.5387 72.697Z" fill="#29004B"/>
</g>
<g filter="url(#filter3_f_77_424)" style="mix-blend-mode:plus-lighter">
<path d="M945.203 932.288L732.094 1069.76L999.611 756.528L1342.05 474.97L1767.92 968.408L1695.64 1092.33L1488.72 1075.91L1203.24 919.33L945.203 932.288Z" fill="white"/>
</g>
<g filter="url(#filter4_f_77_424)" style="mix-blend-mode:plus-lighter">
<path d="M933.305 836.139L720.195 973.61L987.713 660.38L1330.15 378.821L1756.02 872.26L1683.74 996.18L1476.83 979.762L1191.34 823.181L933.305 836.139Z" fill="#7100CC"/>
</g>
<g filter="url(#filter5_f_77_424)" style="mix-blend-mode:plus-lighter">
<path d="M992.255 724.314L779.146 861.785L1046.66 548.555L1389.1 266.996L1814.97 760.435L1742.69 884.354L1535.78 867.937L1250.29 711.356L992.255 724.314Z" fill="#29004B"/>
</g>
</g>
<defs>
<filter id="filter0_f_77_424" x="-941.333" y="-729.602" width="1595.81" height="1246.66" filterUnits="userSpaceOnUse" color-interpolation-filters="sRGB">
<feFlood flood-opacity="0" result="BackgroundImageFix"/>
<feBlend mode="normal" in="SourceGraphic" in2="BackgroundImageFix" result="shape"/>
<feGaussianBlur stdDeviation="141.12" result="effect1_foregroundBlur_77_424"/>
</filter>
<filter id="filter1_f_77_424" x="-951.891" y="-633.296" width="1595.81" height="1246.66" filterUnits="userSpaceOnUse" color-interpolation-filters="sRGB">
<feFlood flood-opacity="0" result="BackgroundImageFix"/>
<feBlend mode="normal" in="SourceGraphic" in2="BackgroundImageFix" result="shape"/>
<feGaussianBlur stdDeviation="141.12" result="effect1_foregroundBlur_77_424"/>
</filter>
<filter id="filter2_f_77_424" x="-1035" y="-538.047" width="1595.81" height="1246.66" filterUnits="userSpaceOnUse" color-interpolation-filters="sRGB">
<feFlood flood-opacity="0" result="BackgroundImageFix"/>
<feBlend mode="normal" in="SourceGraphic" in2="BackgroundImageFix" result="shape"/>
<feGaussianBlur stdDeviation="141.12" result="effect1_foregroundBlur_77_424"/>
</filter>
<filter id="filter3_f_77_424" x="449.854" y="192.73" width="1600.3" height="1181.84" filterUnits="userSpaceOnUse" color-interpolation-filters="sRGB">
<feFlood flood-opacity="0" result="BackgroundImageFix"/>
<feBlend mode="normal" in="SourceGraphic" in2="BackgroundImageFix" result="shape"/>
<feGaussianBlur stdDeviation="141.12" result="effect1_foregroundBlur_77_424"/>
</filter>
<filter id="filter4_f_77_424" x="437.955" y="96.5813" width="1600.3" height="1181.84" filterUnits="userSpaceOnUse" color-interpolation-filters="sRGB">
<feFlood flood-opacity="0" result="BackgroundImageFix"/>
<feBlend mode="normal" in="SourceGraphic" in2="BackgroundImageFix" result="shape"/>
<feGaussianBlur stdDeviation="141.12" result="effect1_foregroundBlur_77_424"/>
</filter>
<filter id="filter5_f_77_424" x="496.906" y="-15.2439" width="1600.3" height="1181.84" filterUnits="userSpaceOnUse" color-interpolation-filters="sRGB">
<feFlood flood-opacity="0" result="BackgroundImageFix"/>
<feBlend mode="normal" in="SourceGraphic" in2="BackgroundImageFix" result="shape"/>
<feGaussianBlur stdDeviation="141.12" result="effect1_foregroundBlur_77_424"/>
</filter>
<linearGradient id="paint0_linear_77_424" x1="8.42507e-06" y1="223.15" x2="1440" y2="716.45" gradientUnits="userSpaceOnUse">
<stop stop-color="#15002F"/>
<stop offset="1" stop-color="#2C0064"/>
</linearGradient>
<clipPath id="clip0_77_424">
<rect width="1440" height="570" fill="white"/>
</clipPath>
</defs>
</svg>
